<?xml version="1.0" standalone="no"?>
<!DOCTYPE svg PUBLIC "-//W3C//DTD SVG 20010904//EN"
 "http://www.w3.org/TR/2001/REC-SVG-20010904/DTD/svg10.dtd">
<svg version="1.0" xmlns="http://www.w3.org/2000/svg"
 width="348.000000pt" height="346.000000pt" viewBox="0 0 348.000000 346.000000"
 preserveAspectRatio="xMidYMid meet">

<g transform="translate(0.000000,346.000000) scale(0.100000,-0.100000)"
fill="#000000" stroke="none">
<path d="M1480 3298 c-19 -23 -34 -49 -35 -58 0 -18 -52 -118 -70 -136 -7 -7
-15 -11 -18 -8 -6 7 -37 -49 -46 -84 -6 -22 -8 -22 -83 28 -76 52 -158 78
-158 51 0 -7 -8 -11 -17 -9 -10 2 -26 -3 -35 -12 -20 -19 -40 -68 -32 -81 3
-5 -2 -9 -10 -9 -8 0 -14 -6 -12 -12 11 -34 15 -78 7 -78 -4 0 -13 10 -20 23
-10 19 -11 16 -6 -21 17 -134 18 -165 6 -158 -17 11 -5 -38 25 -98 14 -27 18
-44 11 -38 -8 7 -16 9 -19 7 -3 -3 -11 8 -18 25 l-13 32 -23 -29 -24 -28 14
35 c20 50 23 95 7 114 -12 14 -12 16 4 10 13 -5 16 -4 11 5 -4 6 -16 9 -26 6
-10 -3 -24 0 -31 8 -9 10 -23 12 -46 7 -18 -5 -33 -4 -33 0 0 4 -15 4 -34 0
-19 -4 -40 -4 -47 1 -8 5 -23 9 -34 8 -15 0 -11 -5 15 -19 19 -10 48 -32 64
-49 16 -17 33 -28 38 -25 5 3 12 -3 15 -15 3 -12 9 -21 14 -21 4 0 9 -12 11
-27 2 -17 8 -27 17 -25 8 2 11 -3 8 -10 -11 -30 -28 -130 -23 -135 3 -4 6 1 6
10 0 24 15 21 29 -7 17 -31 6 -62 -30 -83 -16 -9 -29 -22 -29 -28 0 -5 -5 -3
-10 5 -8 12 -10 12 -10 1 0 -8 -3 -12 -6 -8 -4 3 5 20 20 38 24 28 26 36 20
83 -8 61 -9 63 -31 45 -11 -9 -9 -2 7 20 13 19 18 31 11 27 -17 -11 -71 -87
-71 -100 1 -6 7 1 16 16 9 17 20 25 29 22 8 -4 15 -8 15 -11 0 -13 -26 -50
-46 -66 -13 -9 -32 -41 -44 -70 l-20 -52 6 45 c3 25 8 53 10 63 7 22 7 22 -68
-13 -35 -16 -85 -33 -111 -36 -46 -7 -47 -6 -61 26 l-13 33 -10 -39 c-6 -27
-15 -40 -28 -42 -46 -7 -79 -28 -111 -71 l-36 -46 44 -7 c41 -7 78 -36 91 -70
3 -9 10 -7 22 10 24 33 49 29 40 -5 -3 -16 -13 -35 -21 -44 -13 -14 -13 -18 1
-29 8 -7 15 -23 15 -36 0 -13 5 -24 10 -24 6 0 10 -5 10 -12 0 -7 12 -24 27
-40 14 -15 25 -29 22 -31 -96 -68 -129 -118 -136 -209 -4 -57 -3 -61 9 -38 23
42 75 70 130 70 54 0 67 -14 48 -52 -21 -40 -53 -68 -76 -68 -29 0 -38 14 -24
41 11 19 10 20 -9 10 -51 -28 -94 -145 -61 -166 6 -3 10 2 10 13 0 25 31 52
58 52 28 0 28 -4 -5 -67 -18 -34 -34 -53 -46 -53 -10 0 -20 -8 -23 -17 -19
-58 -33 -81 -89 -139 l-63 -65 34 7 34 6 -60 -95 c-54 -86 -114 -206 -107
-213 1 -2 61 80 132 182 72 101 134 184 139 184 5 0 7 -3 4 -6 -3 -3 -3 -17 1
-32 6 -23 -3 -43 -61 -126 -110 -160 -80 -149 60 22 69 85 77 92 89 76 12 -16
13 -14 13 17 1 23 10 45 30 69 29 33 30 33 45 15 13 -19 14 -17 15 23 0 47 5
50 32 25 19 -17 19 -16 13 9 -5 19 -2 29 13 39 10 8 24 24 30 36 20 37 93 102
129 114 41 13 49 8 33 -20 -13 -25 -2 -27 26 -3 27 23 50 60 59 97 l7 30 -22
-28 c-35 -44 -35 -24 -1 24 17 23 31 50 31 59 0 20 27 46 37 36 4 -3 -1 -22
-10 -41 -23 -47 -21 -53 4 -21 27 34 35 33 43 -6 l7 -33 25 45 c47 83 84 106
84 52 0 -15 4 -43 10 -61 11 -41 1 -57 -49 -78 -19 -8 -47 -28 -62 -44 -15
-16 -41 -32 -58 -35 -32 -7 -101 -73 -101 -97 0 -7 -12 -20 -27 -29 -16 -10
-41 -28 -58 -42 l-30 -24 45 8 c49 9 65 6 28 -5 -34 -11 -168 -93 -202 -124
-16 -14 -43 -49 -61 -76 -39 -59 -69 -90 -60 -59 4 10 0 8 -8 -6 -18 -31 -28
-161 -18 -218 11 -55 50 -97 112 -117 27 -9 51 -21 55 -26 3 -5 23 -9 44 -7
21 1 44 -3 52 -9 9 -7 45 -8 113 -2 55 4 114 8 131 9 19 0 53 14 84 35 39 26
75 40 148 55 70 14 111 29 155 56 l60 37 35 -19 c52 -28 82 -53 82 -70 0 -8
-4 -14 -9 -14 -5 0 -8 -15 -7 -32 1 -26 -3 -33 -17 -32 -9 1 -16 -3 -15 -10 2
-6 -11 -34 -28 -61 -30 -49 -35 -52 -176 -114 -126 -54 -149 -61 -168 -51 -21
11 -22 21 -5 62 10 25 -8 22 -43 -6 -33 -28 -34 -61 -2 -131 9 -22 21 -70 24
-107 l7 -67 56 -11 c65 -14 91 -37 89 -77 -2 -36 -111 -139 -189 -177 l-52
-26 660 2 660 3 -3 52 c-3 44 -1 53 17 63 14 7 21 21 21 40 0 23 9 35 45 60
l45 31 -6 81 -7 80 36 32 37 33 -6 67 c-3 44 0 87 11 128 10 42 12 65 5 72 -7
7 -10 5 -10 -5 0 -8 -9 -20 -20 -26 -16 -11 -37 -5 -140 42 -187 84 -246 119
-259 156 -6 18 -11 40 -11 49 0 20 -16 35 -47 44 -18 6 -23 3 -23 -9 0 -27
-33 -75 -51 -75 -18 0 -29 19 -29 53 0 18 -2 19 -10 7 -9 -13 -13 -11 -30 10
-11 14 -20 36 -20 49 0 13 -11 36 -25 53 -32 38 -33 68 -2 68 58 0 147 -25
205 -56 50 -28 62 -40 62 -59 0 -33 6 -32 46 13 18 20 34 33 34 27 0 -5 12
-23 25 -40 l25 -30 0 68 c0 60 -2 67 -20 67 -25 0 -25 8 -2 40 9 14 22 36 28
50 10 24 11 24 18 4 7 -22 76 -51 76 -32 0 18 -39 76 -56 82 -13 5 -13 9 2 30
11 18 14 35 9 58 -7 29 -6 31 8 20 10 -9 28 -11 52 -6 l36 6 -33 29 c-18 16
-43 31 -55 35 -19 5 -23 13 -23 45 0 29 3 37 14 33 8 -3 26 2 41 12 l27 18
-37 18 c-20 11 -43 17 -51 14 -9 -3 -20 7 -30 26 -31 60 -221 317 -306 414
-26 29 -50 66 -54 81 -3 16 -8 36 -11 46 -11 43 73 -2 93 -50 l15 -35 46 63
c25 35 56 87 69 116 21 47 58 174 71 248 5 26 7 28 14 10 4 -11 8 -49 9 -85 2
-36 5 -78 9 -95 4 -16 3 -37 -3 -46 -6 -12 -3 -28 11 -55 22 -42 43 -56 43
-27 0 15 3 14 19 -6 10 -14 17 -30 14 -36 -4 -13 86 -129 94 -121 6 5 -28 57
-60 93 -11 13 -20 39 -22 67 -3 56 12 72 52 58 l28 -10 -32 -1 c-25 -1 -33 -5
-33 -20 0 -28 39 -111 53 -113 7 0 19 -1 27 -2 8 -1 24 -18 35 -39 12 -20 24
-35 26 -33 4 5 8 -17 9 -58 1 -10 4 -15 7 -12 4 3 15 -1 25 -11 17 -15 18 -15
18 4 0 25 8 33 26 26 10 -3 10 -9 2 -22 -8 -13 -5 -28 11 -62 l22 -44 -26 30
c-18 20 -23 23 -16 9 9 -19 5 -27 -38 -63 -47 -40 -48 -43 -44 -85 4 -28 0
-53 -11 -74 -26 -50 -20 -147 9 -136 17 7 65 -63 65 -93 0 -28 10 -29 42 -4
13 11 37 23 51 27 15 3 36 17 46 30 12 16 21 20 28 13 7 -7 15 -4 26 11 15 21
15 21 36 -13 35 -58 73 -169 81 -237 l7 -65 14 33 c7 17 17 32 21 32 4 0 19
-22 33 -50 14 -27 28 -50 30 -50 3 0 9 10 14 22 8 21 10 20 30 -19 11 -23 30
-47 42 -54 26 -14 27 -15 -54 191 -75 194 -107 283 -102 289 3 2 15 -3 28 -12
16 -10 49 -76 109 -219 51 -121 92 -203 100 -203 27 0 91 -151 69 -165 -8 -4
13 -66 70 -201 45 -107 85 -198 89 -203 19 -20 -54 249 -101 369 -65 168 -109
308 -94 295 19 -16 20 -2 0 20 -24 26 -92 171 -114 244 -13 42 -18 78 -14 98
6 30 5 31 -25 25 -34 -7 -42 4 -42 56 0 17 -11 58 -24 91 -34 86 -39 106 -27
106 5 0 15 -17 21 -37 16 -49 33 -68 20 -22 -14 48 -13 92 2 83 8 -5 9 15 3
82 -4 49 -9 107 -10 129 -1 22 -9 54 -17 70 -20 36 -72 88 -94 91 -14 2 -14 0
-1 -20 10 -15 12 -27 5 -39 -16 -29 -32 -19 -66 43 -49 90 -247 330 -272 330
-4 0 -24 -12 -45 -26 l-38 -25 -28 20 c-16 12 -35 21 -44 21 -26 0 -75 29 -75
45 0 7 -9 16 -19 20 -11 3 -18 12 -15 19 3 8 -6 23 -20 34 -14 11 -26 25 -26
31 0 12 -32 31 -54 31 -8 0 -28 12 -43 28 l-29 27 33 32 c18 17 33 27 33 23 0
-5 -4 -12 -10 -15 -5 -3 -14 -14 -19 -23 -8 -16 -1 -17 80 -14 81 4 93 2 133
-22 24 -14 61 -45 82 -68 20 -24 33 -34 29 -23 -4 11 -8 25 -8 32 0 7 -3 11
-6 9 -7 -4 -97 112 -107 139 -9 22 53 -46 80 -88 38 -61 25 -15 -22 79 -36 72
-64 113 -103 150 -76 71 -108 91 -119 73 -9 -13 -24 -7 -26 12 -1 5 -2 14 -3
20 -1 10 -102 59 -122 59 -6 0 3 -16 20 -35 17 -20 34 -47 37 -60 3 -14 10
-25 15 -25 5 0 9 -8 9 -17 0 -12 -3 -14 -11 -6 -8 8 -21 0 -47 -29 -29 -32
-33 -41 -21 -49 31 -20 -5 -7 -61 21 -51 26 -70 30 -137 30 -117 -1 -163 -13
-196 -50 -29 -32 -29 -32 -50 -13 -12 11 -29 23 -39 26 -25 9 -36 181 -15 256
9 30 14 57 13 58 -1 2 -18 -16 -36 -39z m-350 -286 c0 -9 -5 -24 -10 -32 -7
-11 -10 -5 -10 23 0 23 4 36 10 32 6 -3 10 -14 10 -23z m745 8 c4 -6 -7 -10
-25 -10 -18 0 -29 4 -25 10 3 6 15 10 25 10 10 0 22 -4 25 -10z m430 -30 c3
-6 -1 -7 -9 -4 -18 7 -21 14 -7 14 6 0 13 -4 16 -10z m-955 -10 c8 -5 11 -10
5 -10 -5 0 -17 5 -25 10 -8 5 -10 10 -5 10 6 0 17 -5 25 -10z m-59 -17 c13
-16 12 -17 -3 -4 -10 7 -18 15 -18 17 0 8 8 3 21 -13z m539 -28 c0 -12 -58
-37 -69 -29 -10 8 11 35 24 30 8 -3 17 -1 20 4 9 15 25 12 25 -5z m-636 -33
c-33 -31 -37 -32 -28 -8 6 14 32 32 53 35 2 1 -9 -11 -25 -27z m-87 -14 c-3
-8 -6 -5 -6 6 -1 11 2 17 5 13 3 -3 4 -12 1 -19z m-37 -24 c0 -2 -14 -4 -31
-4 -16 0 -28 4 -25 9 5 8 56 3 56 -5z m38 -20 c-4 -3 -12 5 -18 18 -12 22 -12
22 6 6 10 -10 15 -20 12 -24z m482 16 c0 -5 -5 -10 -11 -10 -5 0 -7 5 -4 10 3
6 8 10 11 10 2 0 4 -4 4 -10z m-400 -14 c0 -2 -7 -7 -16 -10 -8 -3 -12 -2 -9
4 6 10 25 14 25 6z m-62 -38 c10 -10 15 -10 22 2 8 13 10 13 10 -1 0 -24 -12
-30 -29 -15 -9 8 -29 16 -46 19 l-30 4 31 2 c16 0 36 -5 42 -11z m-338 -88 c0
-5 -2 -10 -4 -10 -3 0 -8 5 -11 10 -3 6 -1 10 4 10 6 0 11 -4 11 -10z m67 -52
c-3 -8 -6 -5 -6 6 -1 11 2 17 5 13 3 -3 4 -12 1 -19z m620 -115 c-14 -26 -39
-65 -56 -87 -17 -21 -31 -45 -31 -53 0 -10 -6 -13 -16 -9 -9 3 -20 6 -25 6 -5
0 -9 5 -9 10 0 5 3 9 8 9 20 -3 32 2 26 13 -4 6 -3 8 3 5 6 -4 13 -1 16 7 4
10 0 12 -16 8 -21 -5 -21 -4 4 28 28 37 53 52 43 26 -12 -32 5 -15 35 34 17
28 32 58 32 68 1 15 2 15 6 0 2 -9 -7 -38 -20 -65z m129 62 c-10 -8 -34 -28
-53 -46 -20 -17 -34 -26 -31 -18 5 14 84 79 96 79 4 0 -1 -7 -12 -15z m918
-21 c3 -8 2 -12 -4 -9 -6 3 -10 10 -10 16 0 14 7 11 14 -7z m-1617 -29 c1 -40
-12 -55 -22 -25 -7 22 2 60 14 60 4 0 7 -16 8 -35z m400 -30 c-4 -34 -22 -65
-37 -65 -4 0 1 17 11 37 10 21 19 43 19 50 0 7 2 13 5 13 3 0 4 -16 2 -35z
m178 -37 c-15 -54 -28 -79 -35 -68 -4 7 0 30 9 51 17 42 37 54 26 17z m105
-78 c0 -5 -5 -10 -11 -10 -5 0 -7 5 -4 10 3 6 8 10 11 10 2 0 4 -4 4 -10z
m-384 -84 c18 -20 23 -22 39 -10 32 24 40 15 13 -13 -63 -68 -74 -126 -42
-229 27 -90 30 -111 8 -71 -8 15 -18 27 -22 27 -12 0 -42 -106 -42 -147 0 -20
-3 -33 -6 -30 -15 14 0 336 16 367 12 22 10 80 -2 80 -4 0 -8 5 -8 12 0 14 24
-7 26 -22 1 -6 2 -15 3 -21 1 -12 21 -2 21 12 0 12 -37 49 -50 49 -5 0 -10 -8
-11 -17 0 -12 -4 -9 -10 9 -6 16 -22 31 -40 37 -49 17 -32 20 29 5 33 -9 66
-25 78 -38z m534 -6 c0 -38 -28 -90 -44 -84 -18 7 -21 20 -6 29 6 3 10 0 10
-7 0 -9 3 -9 10 2 14 22 12 33 -5 26 -8 -3 -15 -1 -15 4 0 6 7 10 15 10 8 0
15 9 15 20 0 11 5 20 10 20 6 0 10 -9 10 -20z m686 5 c10 -8 14 -15 8 -15 -5
0 -19 7 -30 15 -10 8 -14 15 -8 15 5 0 19 -7 30 -15z m-1703 -17 c-6 -7 -13
-30 -17 -51 -7 -37 -26 -43 -26 -8 0 18 35 71 47 71 3 0 1 -6 -4 -12z m1216
-68 c-25 -58 -37 -60 -19 -3 23 70 33 90 37 71 2 -9 -6 -40 -18 -68z m-454 40
c-10 -11 -23 -20 -28 -20 -6 0 -2 9 8 20 10 11 23 20 28 20 6 0 2 -9 -8 -20z
m-357 -111 l14 -24 -20 23 c-11 12 -25 22 -31 22 -5 0 -13 4 -16 10 -4 6 2 7
16 1 13 -4 29 -19 37 -32z m-388 8 c0 -2 -13 -28 -30 -58 -16 -30 -30 -46 -30
-36 0 15 -3 15 -20 5 -11 -7 -18 -19 -15 -25 3 -9 -6 -13 -28 -13 -18 0 -38
-5 -45 -12 -6 -6 -14 -9 -17 -7 -2 3 17 22 43 41 26 20 63 53 81 72 29 30 61
47 61 33z m1765 -91 c6 -5 -4 -1 -21 9 -17 9 -36 27 -44 39 -12 20 -3 14 65
-48z m382 52 c-2 -7 3 -19 12 -26 14 -11 13 -12 -6 -2 -14 6 -20 16 -17 25 7
18 17 20 11 3z m-61 -192 c25 -49 41 -85 35 -82 -6 4 -18 20 -26 37 -18 34
-50 41 -42 9 6 -22 -3 -26 -21 -8 -9 9 -13 6 -20 -13 l-9 -24 -7 23 c-4 12 -5
26 -2 31 3 5 -5 39 -19 77 -35 96 -28 96 37 -1 36 -55 70 -76 43 -28 -8 16
-29 53 -46 83 l-30 55 30 -35 c17 -19 52 -75 77 -124z m-15 101 c15 -21 34
-77 25 -77 -5 0 -56 86 -56 94 0 13 16 4 31 -17z m89 -17 c0 -5 -2 -10 -4 -10
-3 0 -8 5 -11 10 -3 6 -1 10 4 10 6 0 11 -4 11 -10z m-43 -42 c-3 -8 -6 -5 -6
6 -1 11 2 17 5 13 3 -3 4 -12 1 -19z m30 -30 c-3 -8 -6 -5 -6 6 -1 11 2 17 5
13 3 -3 4 -12 1 -19z m-2270 -68 c12 -14 23 -29 23 -33 0 -14 -71 -38 -104
-35 -26 2 -32 8 -34 31 -2 16 5 39 18 57 19 27 23 28 48 17 15 -7 37 -23 49
-37z m2280 28 c-3 -8 -6 -5 -6 6 -1 11 2 17 5 13 3 -3 4 -12 1 -19z m-1547
-63 c-7 -9 -15 -13 -17 -11 -7 7 7 26 19 26 6 0 6 -6 -2 -15z m1579 -50 c0 -5
-4 -3 -9 5 -5 8 -9 22 -9 30 0 16 17 -16 18 -35z m-1459 -50 c0 -10 9 -14 32
-11 18 2 37 -2 46 -10 7 -8 9 -14 3 -14 -6 0 -11 -21 -12 -47 -1 -41 -2 -44
-10 -23 -6 18 -7 10 -3 -27 3 -33 1 -53 -6 -53 -5 0 -10 5 -10 10 0 6 -4 9
-10 8 -12 -4 -58 92 -53 110 3 6 14 12 26 12 l22 1 -22 18 c-22 19 -33 58 -13
46 6 -3 10 -13 10 -20z m1306 -46 c4 -8 1 -8 -14 0 -12 6 -24 16 -28 22 -4 8
-1 8 14 0 12 -6 24 -16 28 -22z m29 -49 c3 -6 -1 -7 -9 -4 -18 7 -21 14 -7 14
6 0 13 -4 16 -10z m-1209 -19 c-11 -17 12 -61 29 -55 8 3 15 1 15 -6 0 -6 -4
-8 -10 -5 -5 3 -10 -2 -11 -12 0 -10 -3 -13 -6 -5 -2 6 -11 12 -19 12 -10 0
-14 12 -14 40 0 22 5 40 11 40 5 0 8 -4 5 -9z m1374 5 c0 -3 -4 -8 -10 -11 -5
-3 -10 -1 -10 4 0 6 5 11 10 11 6 0 10 -2 10 -4z m-76 -82 c4 -10 1 -14 -6
-12 -15 5 -23 28 -10 28 5 0 13 -7 16 -16z m-1237 -16 c-3 -8 -6 -5 -6 6 -1
11 2 17 5 13 3 -3 4 -12 1 -19z m1370 -71 c-5 -12 -19 17 -31 63 -4 16 1 12
14 -13 12 -21 19 -44 17 -50z m-1470 31 c-3 -8 -6 -5 -6 6 -1 11 2 17 5 13 3
-3 4 -12 1 -19z m730 -25 c-3 -10 -5 -2 -5 17 0 19 2 27 5 18 2 -10 2 -26 0
-35z m583 6 c0 -6 -4 -7 -10 -4 -5 3 -10 11 -10 16 0 6 5 7 10 4 6 -3 10 -11
10 -16z m70 -78 c0 -33 -10 -21 -20 26 -8 34 -7 36 6 19 8 -11 14 -31 14 -45z
m-669 -8 c-11 -39 -114 -153 -127 -140 -4 3 6 17 21 29 55 46 74 70 91 119 21
57 31 51 15 -8z m-1786 -72 c3 -5 1 -12 -4 -15 -5 -3 -11 1 -15 9 -6 16 9 21
19 6z m1207 -363 c-10 -22 -11 -21 -11 12 -1 26 2 31 11 22 8 -8 8 -17 0 -34z
m-12 -43 c0 -8 -4 -15 -10 -15 -5 0 -7 7 -4 15 4 8 8 15 10 15 2 0 4 -7 4 -15z
m-26 -81 c-21 -31 -28 -26 -14 10 5 15 14 24 20 21 6 -4 4 -16 -6 -31z m335
-237 c16 -20 4 -27 -43 -27 l-41 1 24 19 c27 23 44 25 60 7z m56 -115 c-2 -9
-4 -30 -4 -46 -1 -20 -5 -27 -15 -23 -8 3 -17 1 -19 -6 -2 -7 -7 6 -11 28 -4
24 -2 53 4 69 10 27 11 28 29 12 11 -10 18 -25 16 -34z m136 -11 c4 -46 -7
-72 -25 -65 -16 6 -32 66 -22 82 9 15 46 2 47 -17z m110 -3 c16 0 29 -4 29 -9
0 -5 12 -9 26 -9 21 0 24 -3 15 -13 -6 -8 -8 -16 -5 -20 3 -3 3 -24 -1 -46 -6
-36 -9 -40 -26 -31 -13 8 -19 21 -19 45 0 28 -4 35 -19 35 -12 0 -21 -9 -25
-25 -10 -41 -38 -26 -51 26 -7 29 18 64 37 53 6 -4 24 -7 39 -6z m-361 -48 c0
-33 -3 -40 -20 -40 -11 0 -20 3 -21 8 0 4 -2 18 -3 32 -3 25 8 40 32 40 7 0
12 -15 12 -40z m506 25 c-22 -17 -46 -20 -46 -6 0 10 22 18 50 20 11 0 10 -4
-4 -14z m-618 -59 c4 -36 -11 -54 -33 -36 -15 13 -20 51 -8 64 15 15 38 0 41
-28z m615 3 c11 -17 2 -69 -12 -69 -11 0 -31 46 -31 71 0 24 27 23 43 -2z
m-724 -8 c21 -13 6 -77 -19 -84 -11 -3 -17 -1 -14 4 3 5 -6 19 -19 31 l-25 22
26 17 c32 21 33 21 51 10z m-387 -173 c-6 -6 -15 -8 -19 -4 -4 4 -1 11 7 16
19 12 27 3 12 -12z"/>
<path d="M845 2468 c-4 -10 -4 -25 -1 -34 3 -8 2 -12 -4 -9 -6 3 -10 -1 -10
-9 0 -22 27 -9 34 16 3 12 1 29 -4 37 -8 14 -9 14 -15 -1z"/>
<path d="M3086 1052 c-3 -5 -1 -24 4 -43 13 -44 13 -46 -3 -24 -10 13 -16 15
-21 6 -13 -20 75 -181 172 -316 54 -75 49 -58 -49 172 -44 100 -79 187 -79
192 0 14 -18 23 -24 13z"/>
</g>
</svg>
